<svg xmlns="http://www.w3.org/2000/svg" width="532" height="492" fill="none" viewBox="0 0 532 492">
  <mask id="a" width="532" height="492" x="0" y="0" maskUnits="userSpaceOnUse" style="mask-type:luminance">
    <path fill="#fff" d="M531.562 0H0v492h531.562V0Z"/>
  </mask>
  <g mask="url(#a)">
    <path fill="#251620" d="M248.089 341.721c-2.151-.35-4.307-.67-6.452-1.051-32.315-5.696-60.823-19.025-84.095-42.507-8.938-9.018-16.735-18.996-23.287-29.964-6.117-10.238-10.708-21.091-13.909-32.504-1.881-6.707-2.881-13.615-2.891-20.667-.01-7.982 4.051-13.293 10.613-16.855 7.833-4.251 16.41-6.376 25.108-8.202 10.498-2.206 21.116-3.611 31.714-5.116 9.133-1.296 18.36-2.011 27.568-2.601 10.543-.675 21.111-1.801 31.684-.941 6.517.531 12.724 2.246 17.421 7.338 1.125 1.215 1.69 2.525 1.58 4.241-.14 2.241-.12 4.501.015 6.742.09 1.575-.665 1.32-1.605 1-.521.025-.991-.155-1.406-.44-6.142-4.261-13.084-5.447-20.371-5.312-1.245.025-2.501.066-3.741-.005-11.988-.66-22.422 3.897-32.48 9.688-1.595.921-2.785 2.366-4.266 3.441-1.495 1.086-3.116 1.681-4.921 1.136-5.347-1.611-10.548-.656-15.71.82-6.832 1.95-12.969 5.151-17.915 10.378-.99 1.045-2.181 1.5-3.611 1.215-4.652-.935-10.083-1.545-14.184-4.091-1.821-1.82-2.016-3.031-.641-3.926 4.652-3.026 11.874-6.702 17.145-8.247 8.688-2.546 17.606-4.287 26.563-5.912 2.766-.5 5.587-.65 8.608-1.311-.84-.865-1.696-.725-2.416-.635-3.131.38-6.277.555-9.408 1.041-3.931.61-7.897.99-11.803 1.82-9.348 1.976-18.821 3.401-27.953 6.302-1.901.605-4.052-.01-5.752 1.335-1.27.801-2.646 1.426-3.831 2.361-2.686 2.121-2.741 4.661-.15 6.932 1.33 1.165 2.926 1.906 4.511 2.651 6.827 3.226 14.054 5.201 21.391 6.807 12.369 2.706 24.858 4.806 37.406 6.352 6.747.83 13.569 1.39 20.381 1.855 10.218.695 20.456.816 30.674 1.406.751.045 1.501.05 2.251.055 17.91.135 35.841.275 53.721-.66 8.783-.456 17.595-1.011 26.373-2.031 8.432-.98 16.88-1.936 25.227-3.356 12.954-2.206 25.968-4.411 38.131-9.793 2.066-.915 4.077-1.921 5.842-3.341 3.191-2.566 3.036-5.011-.455-7.057-1.285-.755-2.556-1.575-4.001-2.011-1.461.155-2.766-.315-4.081-.905-4.727-2.131-9.763-3.226-14.795-4.356-5.846-1.311-11.718-2.541-17.64-3.341-7.137-.96-14.269-2.241-22.001-2.076.985 1.006 1.885.931 2.695 1.031 13.959 1.765 27.448 4.806 40.472 10.007 3.096 1.236 5.857 3.832 8.773 5.437 1.645.905 1.955 1.951.375 3.226-4.586 2.566-9.703 3.386-14.749 4.386-1.636.325-2.856-.785-3.942-1.82-4.291-4.101-9.342-6.992-14.829-9.073-5.026-1.91-10.238-3.096-15.629-1.51-3.206.945-5.997.345-8.693-1.611-2.626-1.905-5.382-3.621-8.192-5.271-10.944-6.427-22.697-8.658-35.271-7.498-5.151.476-9.963 1.776-14.564 4.042-.665.325-1.336.715-2.136.485-.885.45-1.88 1.195-1.705-.77.075-.826.02-1.666.02-2.501.01-7.087 1.73-9.623 8.302-12.189 4.056-1.585 8.263-2.395 12.619-2.491 14.344-.31 28.603 1.061 42.888 2.071 8.637.61 17.23 1.651 25.767 2.951 6.967 1.06 13.959 2.046 20.856 3.641 7.357 1.701 14.665 3.476 21.497 6.722 4.546 2.161 8.872 4.681 11.728 9.153 1.541 2.415 2.266 4.991 2.346 7.742.195 6.607-.715 13.109-2.221 19.541-2.656 11.328-7.177 21.941-12.804 32.039-4.211 7.557-9.252 14.599-14.729 21.356-8.783 10.834-18.701 20.426-30.149 28.344-8.888 6.147-18.295 11.383-28.358 15.479-7.147 2.911-14.395 5.467-21.832 7.443-5.366 1.425-10.868 2.34-16.315 3.486-.61.13-1.215.28-1.76.9"/>
    <path fill="#fff" d="M165.429 240.676s-30.139-5.617-36.265-10.728c0 0 13.589 63.508 70.46 75.087l-11.888-28.434-19.921-25.027-2.386-10.898Z"/>
    <path fill="#FDFDFC" d="M142.193 215.128c4.306 1.946 10.628 3.806 15.249 4.817 1.2.265 1.801-.07 2.551-.835 8.232-8.403 18.305-12.394 30.009-12.424.665 0 1.425-.13 1.98.135 3.996 1.91 6.577-.315 9.623-2.581 6.887-5.131 14.754-8.297 23.152-10.213 7.177-1.635 14.454-1.51 21.596-.65 5.442.655 11.114 1.815 15.2 6.257.02.69.48 1.01 1.04 1.25 2.086.88 6.667-.64 7.957-2.646 2.981-2.205 6.417-3.371 9.958-4.191 17.856-4.116 34.02.025 48.685 10.483 3.646 2.596 6.897 3.691 11.488 2.631 6.787-1.565 13.284.625 19.366 3.756 3.661 1.886 7.082 4.166 10.038 7.057 1.515 1.481 3.006 2.276 5.266 1.611 4.272-1.246 9.528-2.561 13.549-4.632 1.806-1.14 2.761-1.645 4.442-2.961 1.205-.945-.831-.845-1.416-2.405-.255-.685 1.961-2.776 2.736-3.386 2.261.62 4.236 1.86 6.142 3.126 2.28 1.51 2.22 4.136.04 6.467-2.486 2.655-5.817 3.956-9.053 5.321-9.368 3.946-19.351 5.747-29.218 7.792-7.548 1.566-15.255 2.401-22.912 3.401-29.049 3.787-58.257 4.132-87.481 3.762-14.984-.191-29.959-.856-44.893-2.196-10.918-.98-21.752-2.586-32.555-4.511-8.987-1.606-17.97-3.116-26.698-5.807-5.031-1.551-10.088-3.146-14.474-6.247-4.441-3.136-4.451-6.207.065-9.218a56.48 56.48 0 0 1 4.036-2.405c.555-.526.715-.01 1.206.4.63.535.09 1.2-.155 1.78-1.156 2.731-1.046 3.271 1.315 4.892"/>
    <path fill="#857C16" d="M320.16 256.256s-80.034 7.762-152.735-5.687c0 0 6.642 21.111 28.603 37.456l12.839 17.01s34.675 4.066 58.902-6.152c24.233-10.218 44.043-26.798 52.386-42.627h.005Z"/>
    <path fill="#C89E6F" d="m289.326 199.054 7.592 30.604s58.127-3.406 70.216-7.323c0 0-16.855-15.834-32.69-5.616 0 0-16.51-20.171-45.118-17.66v-.005Z"/>
    <path fill="#F9E0C2" d="M167.245 221.65s49.374 11.409 133.994 7.833c0 0-11.748-8.853 1.531-15.835l-5.107-5.957s-5.276-2.386-6.472-8.512c0 0-13.279-2.046-25.537 10.218 0 0-27.413-28.774-66.745 6.982 0 0-13.279-9.533-31.669 5.276l.005-.005Z"/>
    <path fill="#83523F" d="M181.806 216.884v4.936s11.748-.765 13.364 2.896c0 0 3.491-.51 1.615-4.596 0 0-5.191-5.532-14.984-3.236h.005Z"/>
    <path fill="#56331A" d="M209.047 213.138s-1.955 3.661.425 4.426c0 0 11.834 1.315 12.769 2.956v-4.912s-6.217-3.661-13.194-2.47Z"/>
    <path fill="#D1A976" d="m247.524 208.371-5.192-2.025 4.251-6.972 3.951 1.08-3.01 7.917Z"/>
    <path fill="#8F6233" d="M260.962 205.59s-9.663 4.252-13.434 2.781l3.006-7.917s9.418 4.426 10.428 5.136Z"/>
    <path fill="#56331A" d="M304.565 216.949s-1.955 3.661.425 4.426c0 0 11.834 1.316 12.769 2.956v-4.911s-6.217-3.661-13.194-2.471Zm-77.258-10.363s-1.955 3.661.426 4.426c0 0 11.833 1.316 12.768 2.956v-4.911s-6.217-3.661-13.194-2.471Zm36.874 6.13-10.853-2.039a2.236 2.236 0 0 0-2.61 1.785l-.152.811a2.236 2.236 0 0 0 1.784 2.61l10.854 2.039a2.236 2.236 0 0 0 2.61-1.785l.152-.811a2.236 2.236 0 0 0-1.785-2.61Zm-5.938 9.573-10.854-2.039a2.236 2.236 0 0 0-2.61 1.784l-.152.811a2.235 2.235 0 0 0 1.784 2.61l10.854 2.039a2.236 2.236 0 0 0 2.61-1.784l.152-.811a2.235 2.235 0 0 0-1.784-2.61Zm32.814-14.651-10.853-2.039a2.236 2.236 0 0 0-2.61 1.785l-.152.811a2.236 2.236 0 0 0 1.784 2.61l10.853 2.039a2.236 2.236 0 0 0 2.611-1.785l.152-.811a2.236 2.236 0 0 0-1.785-2.61Zm18.214-1.062-10.877 1.906a2.236 2.236 0 0 0-1.817 2.588l.143.813a2.236 2.236 0 0 0 2.588 1.816l10.877-1.906a2.235 2.235 0 0 0 1.816-2.588l-.142-.813a2.236 2.236 0 0 0-2.588-1.816Zm-10.802 12.998-10.854-2.039a2.236 2.236 0 0 0-2.61 1.785l-.152.811a2.236 2.236 0 0 0 1.784 2.61l10.854 2.039a2.236 2.236 0 0 0 2.61-1.785l.152-.811a2.236 2.236 0 0 0-1.784-2.61Zm-76.013 4.317-.45.825 2.301.935.575-.88-2.426-.88Zm1.466 3.041-.475 1.405 4.051.315v-1.72h-3.576Z"/>
    <path fill="#F7ECDA" d="m197.699 245.242-33.145-4.696 2.296 10.648 11.183 1.621 24.262 3.661-4.596-11.234Z"/>
    <path fill="#5D5703" d="M167.822 342.706c.53-.005 2.436 1.065 2.726.385.28-.675-1.576-2.911-1.966-3.301-4.796-4.811-10.098-9.027-15.57-13.019-7.367-5.381-15.244-9.898-23.777-13.174-7.827-3.005-15.914-5.131-24.152-6.681-1.54-.291-1.555.445-1.045 1.465 1.15 2.296 2.271 4.571 2.701 7.157.215 1.29 1.49 1.36 2.591 1.485 9.858 1.156 18.93 4.577 27.393 9.673 1.05.636 2.025 1.461 2.871 2.356 1.18 1.245 1.925 2.746 1.16 4.501-.745 1.706-2.256 2.356-3.996 2.586-2.231.295-4.042-.765-5.802-1.88-7.042-4.457-14.714-7.128-22.962-8.143-2.395-.295-4.711-1.06-7.162-1.015-1.305.025-1.555-.965-1.635-2.051-.891-12.168-7.498-20.416-18.166-25.477-5.631-2.671-11.863-3.631-18.055-4.362-1.325-.155-2.581-.225-3.711-1.135-1.631-1.315-2.186-3.001-1.626-4.881.571-1.926 2.166-2.991 4.142-2.856 4.386.3 8.737.895 13.038 1.9 8.118 1.891 15.39 5.377 21.602 10.969.885.795 1.845.94 2.956.94 10.953.035 21.296 3.011 31.499 6.632 16.245 5.772 29.954 15.549 42.397 27.203 2.981 2.791 7.148 6.417 9.228 10.078"/>
    <path fill="#CDAC89" d="M313.583 106.241c.545-3.231 1.091-6.466 1.631-9.697.785-4.727 1.63-9.443 2.335-14.18.741-4.99 1.326-10.003 2.006-15.004.32-2.35.115-2.406-2.271-1.84-3.611.855-7.287 1.43-10.923 2.185-1.46.3-1.725-.12-1.425-1.545 1.01-4.792 1.845-9.583 1.655-14.545-.14-3.706-1.22-7.152-2.01-11.063 19.705 7.102 37.556 17.32 54.446 30.6-10.649 1.835-20.101 4.595-28.629 10.477-8.907 6.142-12.338 15.49-16.185 24.752-.21-.045-.42-.09-.625-.14h-.005Z"/>
    <path fill="#CCAD88" d="M173.051 71.616c6.577-5.817 13.214-10.018 19.776-14.344 6.627-4.37 13.514-8.238 20.761-11.484 3.766-1.685 7.472-3.506 11.209-5.266.69-.325 1.455-.685 2.115-.15.745.605.19 1.4-.015 2.07-2.075 6.928-1.6 13.98-.94 21.017.275 2.951.06 3.541-2.881 3.126-2.371-.336-4.776-.45-7.107-1.196-2.451-.78-2.896-.305-3.001 2.201-.23 5.421.24 10.838.805 16.185.355 3.386.861 6.862 1.841 10.233 1.005 3.446 1.335 7.087 1.66 10.918-6.477-21.742-22.081-31.464-44.223-33.31Z"/>
    <path fill="#51301A" d="M106.226 291.071c-13.364.13-21.611-6.827-27.328-17.695-2.861-5.437-4.606-11.319-5.891-17.326-.321-1.495-.516-3.04 1.85-2.63 5.642.98 11.378 1.41 16.94 2.806 9.133 2.285 16.57 6.897 20.751 15.709 2.626 5.542 2.591 11.414 1.881 17.35-.155 1.316-.906 1.616-1.866 1.616-2.16 0-4.181.17-6.342.17h.005Z"/>
    <path fill="#C9AB87" d="M403.741 135.165c1.726 4.631 3.276 9.198 4.516 13.909 1.366 5.182 2.421 10.433 3.536 15.65a90.355 90.355 0 0 1 1.676 11.543c.44 5.457.765 10.923 1.11 16.39.035.55.27 1.27-.295 1.62-.66.41-1.005-.34-1.435-.665-5.552-4.236-11.779-6.937-18.546-8.617-1.99-.496-3.931-1.176-5.981-1.476-1.201-.175-1.276-.755-.466-1.675 5.122-5.847 9.028-12.404 11.519-19.791a75.732 75.732 0 0 0 3.681-17.69c.265-3.051.775-6.102.675-9.193l.01-.005Z"/>
    <path fill="#CCAC87" d="M127.789 137.095c.585 4.342.785 8.778 1.835 13.004 2.781 11.189 6.587 21.967 14.475 30.794 1.56 1.746 1.365 2.111-.951 2.706-6.722 1.726-13.519 3.271-19.495 7.052-1.536.976-3.011 2.051-4.512 3.081-.39.27-.71.835-1.265.53-.525-.285-.365-.89-.325-1.355.36-4.296.705-8.598 1.14-12.884.69-6.752 1.546-13.489 2.921-20.136 1.596-7.712 3.121-15.459 6.177-22.797v.005Z"/>
    <path fill="#52331E" d="M333.759 122.911c.301-9.012 2.136-16.72 8.913-22.451 4.306-3.646 9.343-5.512 14.804-6.447.326-.055.666-.055.996-.1 4.416-.62 4.461-.615 4.071 4.006-.735 8.692-3.321 16.525-10.583 22.086-4.076 3.121-8.978 4.037-13.824 5.077-.405.085-.83.055-1.246.1-2.104.23-3.147-.527-3.131-2.271Z"/>
    <path fill="#C9A273" d="M344.487 112.943c.08-2.325.55-4.316 2.3-5.796 1.111-.941 2.411-1.421 3.822-1.666.085-.015.17-.015.255-.025 1.14-.16 1.15-.16 1.05 1.035-.19 2.241-.855 4.267-2.731 5.702-1.05.805-2.315 1.04-3.566 1.31-.105.02-.215.015-.32.025-.543.06-.812-.135-.805-.585h-.005Z"/>
    <path fill="#51321B" d="M46.764 301.289s21.622 41.502 48.164 26.053l-48.164-26.053Z"/>
    <path fill="#51321B" d="M46.784 301.324s46.574-4.552 48.124 26.123l-48.124-26.123Z"/>
    <path fill="#57351B" d="M197.774 120.24c0 .586.01 1.166 0 1.751-.095 3.931.74 3.771-3.401 2.991-4.156-.785-8.593-1.001-12.189-3.781-8.817-6.822-13.129-15.725-12.619-26.923.055-1.17.531-1.45 1.556-1.226 9.788 2.171 19.191 5.012 24.262 14.845 1.986 3.851 2.431 8.067 2.396 12.343h-.005Z"/>
    <path fill="#25161F" d="M115.08 353.299c-3.906 0-7.817.055-11.724-.015-3.611-.065-5.631-2.07-5.711-5.471-.085-3.541 1.9-5.862 5.536-5.957 7.478-.19 14.965-.23 22.447-.23 2.896 0 5.101 1.47 6.287 4.091.96 2.131.055 4.921-1.661 6.572-.94.905-2.035 1.01-3.201 1.015-3.991.005-7.982 0-11.973 0v-.01.005Z"/>
    <path fill="#CDAF8E" d="M156.631 125.357c-.095.725-.625.735-1.105.605-6.052-1.655-12.249-1.71-18.451-1.76-2.795-.02-3.006-.29-1.885-2.751 3.151-6.912 6.907-13.514 10.593-20.146.335-.605.58-1.841 1.695-1.445.866.305.461 1.305.546 2.005.78 6.727 3.06 12.979 5.981 19.031.756 1.56 1.476 3.141 2.631 4.461h-.005Z"/>
    <path fill="#CAAC85" d="M398.458 123.921c-7.517 1.096-14.824.701-22.437 2.296 4.847-8.362 7.638-16.87 8.283-26.818 5.632 8.043 10.048 16.085 14.154 24.522Z"/>
    <path fill="#4F4E02" d="M84.821 228.282c-5.112-.06-9.073-3.481-8.938-7.627.055-1.706.85-2.956 2.351-3.396 1.555-.46 3.251-.675 4.586.87.841.976 1.386 2.601 3.286 1.886 2.066-.775 2.386-2.576 2.661-4.381.195-1.281-.21-2.691.93-3.737 2.121-1.94 5.612-1.04 6.412 1.746 1.946 6.762-1.785 14.769-11.293 14.639h.005Z"/>
    <path fill="#956B46" d="M259.127 205.13c.13 1.076-.745 1.156-1.411 1.361-1.875.585-3.771 1.12-5.656 1.675-.44.295-.956.215-1.436.285-4.096.601-5.126-.71-3.701-4.691 1.226-3.421 1.766-3.726 4.687-2.686 2.86.695 5.096 2.546 7.517 4.056Z"/>
    <path fill="#936E3E" d="M233.609 221.23c1.891-.39 3.416.415 4.852 1.495.545 1.076 1.64 1.801 2.04 2.946.405 1.171.49 2.386-.5 3.391-2.151 0-4.301 0-6.447-.005-1.965-.07-2.426-1.205-1.72-2.79.725-1.641.515-3.602 1.78-5.037h-.005Z"/>
    <path fill="#CCA07A" d="M251.609 201.074c-.93.45-2.266-1.08-2.881.385-.775 1.856-1.95 3.646-1.655 5.817.12.9.86.875 1.52.885 1.156.015 2.311.01 3.466.01-1.915 1.116-3.836 1.466-5.791.09a2.97 2.97 0 0 0-.906-.405c-1.435-.4-3.516-.16-3.596-2.231-.095-2.395 3.146-5.781 5.262-5.991 1.435.77 3.371-.045 4.581 1.445v-.005Z"/>
    <path fill="#C8A376" d="M233.611 221.23c0 1.751-.11 3.531-1.04 5.032-.936 1.505-.43 2.245.98 2.795l-2.481.045c-1.58-.385-3.181-.395-4.796-.265-1.291.105-2.621.295-3.721-.695.24-.325.475-.93.73-.94 3.646-.095 5.036-3.486 7.607-5.132.835-.535 1.646-1.105 2.721-.835v-.005Z"/>
    <path fill="#CAA980" d="M239.997 229.063c.895-2.456-1.446-4.122-1.536-6.337 2.321 1.53 4.267 3.296 4.092 6.417-.851-.025-1.701-.055-2.556-.08Z"/>
    <path fill="#F9E0C1" d="M222.556 228.137c2.115.946 4.326-.065 6.482.315.725.13 1.45.13 2.035.646l-6.457.045c-.855.005-1.68-.04-2.06-1.006Z"/>
    <path fill="#A17D4F" d="M335.086 64.024c-.025 1.38-1.125 1.93-2.436 2-1.215.065-2.04-.66-2.08-1.935-.06-1.8 1.45-1.756 2.59-1.93 1.141-.176 1.911.37 1.926 1.87v-.005Zm.204 5.506c-.02.941-.765 1.316-1.656 1.361-.825.045-1.39-.45-1.415-1.32-.04-1.226.985-1.196 1.76-1.316.776-.12 1.301.25 1.311 1.27v.005Z"/>
    <path fill="#AE8958" d="M198.334 66.62c-.8-.09-2.316-.01-2.256-1.956.045-1.505 1.201-2.34 2.446-2.29 1.346.054 2.426 1.055 2.496 2.58.065 1.461-.965 1.746-2.686 1.666Z"/>
    <path fill="#D6B483" d="M63.56 310.542c9.963-.526 17.855 2.45 22.536 11.643-6.852 3.301-17.01-1.891-22.536-11.643Z"/>
    <path fill="#A67F57" d="M403.909 174.316c-1.355-.43-3.436.35-3.576-1.795-.06-.961 1.071-1.946 2.286-1.801 1.465.17 2.326 1.151 2.411 2.666.045.81-.255 1.305-1.126.935l.005-.005Z"/>
    <path fill="#A77E55" d="M402.625 181.193c-1.161-.12-2.541.35-2.541-1.57 0-1.736 1.205-1.411 2.246-1.501 1.54-.135 2.54.64 2.535 2.056-.01 1.57-1.5.735-2.24 1.015Z"/>
    <path fill="#A98864" d="M130.544 172.611c.095 1.355-.521 2.07-2.021 2.035-1.14-.025-1.961-.35-1.981-1.65-.02-1.506.756-2.296 2.251-2.341 1.26-.035 1.771.68 1.746 1.956h.005Z"/>
    <path fill="#A78662" d="M128.644 178.117c1.19-.025 1.895.465 1.875 1.751-.02 1.39-1.02 1.225-1.93 1.28-1.261.08-1.941-.595-1.941-1.725 0-1.236 1.045-1.296 1.996-1.306Z"/>
    <path fill="#C6A27C" d="M188.047 113.273c-.045.831-.586 1.041-1.141.591-2.23-1.816-4.316-3.787-5.962-6.172-.19-.275-.305-.67.03-.871.236-.14.696-.205.896-.07 2.395 1.631 4.296 3.767 6.061 6.032.091.115.076.315.116.49Z"/>
    <path fill="#A1994A" d="M196.095 302.124c1.481 1.225 4.026.71 4.872 2.97-3.897-1.56-8.428-1.17-11.949-3.881 1.45-.115 2.601.851 3.941 1.101 1.046.195 2.166.98 3.136-.195v.005Z"/>
    <path fill="#847819" d="M199.585 297.133c-1.706-.265-3.151-.225-3.591 1.985-.146.72-.936 1.311-1.431 1.961-3.521-2.201-6.812-4.692-9.588-7.813-.13-.21-.275-.41-.435-.6-1.12-1.34-1.505-2.751-.32-4.256 1.36-1.715 2.631-.47 3.921.135 3.386 2.501 6.727 5.067 10.463 7.057.575.31 1.161.695.976 1.531h.005Z"/>
    <path fill="#9E9537" d="M187.973 289.17c-1.145.39-1.51-2.061-2.906-.795-.78.71-1.275 1.485-.84 2.59.295.751.865 1.416.755 2.296-1.99-1.005-3.336-2.756-4.921-4.226-1.311-3.151.11-4.897 3.971-4.877 1.685 1.381 3.656 2.531 3.946 5.007l-.005.005Z"/>
    <path fill="#593B20" d="M247.956 219.979c3.26.131 6.156.771 8.942 1.861 1.646.645 2.661 1.816 2.116 3.676-.56 1.911-1.941 1.631-3.586 1.416-3.286-.431-6.357-1.931-9.743-1.801-1.456.055-1.721-1.03-1.756-2.206-.04-1.235.105-2.405 1.566-2.715.885-.19 1.81-.175 2.466-.231h-.005Z"/>
    <path fill="#553619" d="M261.968 218.149c-3.646-1.035-7.378-1.69-11.119-2.32-1.22-.205-1.35-1.301-1.27-2.376.09-1.235.77-2.256 1.915-2.291 4.272-.125 8.408.821 12.374 2.301.975.365 1.431 1.866.915 3.086-.495 1.17-1.47 1.725-2.81 1.595l-.005.005Z"/>
    <path fill="#D7AC7A" d="m273.061 229.593-4.971.045c-.261-.956.71-1.156 1.08-1.721.95-1.45.855-2.446-1.07-2.751-.311-1.84.215-3.331 2.07-3.951 1.971-.655 3.996-2.36 6.037-.095a1.39 1.39 0 0 1-.245.04c-2.686 1.611-2.616 4.401-2.956 7.002-.06.455.295.941.055 1.436v-.005Z"/>
    <path fill="#AF8756" d="M268.099 225.166c.566-.15.866-1.14 1.661-.535.64.485.86 1.151.78 1.936-.16 1.555-1.3 2.321-2.456 3.076l-2.53.015c.715-1.576 2.25-2.681 2.545-4.492Z"/>
    <path fill="#694A28" d="M343.467 217.149c2.616-.345 5.096.75 7.607 1.535 1.141.36 2.566 1.111 1.726 2.666-.64 1.185-.63 3.406-3.286 2.441-2.871-1.04-5.887-1.686-9.013-1.696-.925 0-2.806.46-2.571-.98.235-1.44.285-3.711 2.666-3.956.905-.095 1.831-.015 2.871-.015v.005Z"/>
    <path fill="#533215" d="M295.953 218.704c.43.846 1.445.741 2.06 1.266 1.025.875 1.566 2.005 1.02 3.291-.515 1.215-1.6 1.575-2.89 1.24-1.031-.27-2.066-.535-3.096-.8-2.166-.52-4.322-1.045-6.587-.965-1.496.055-3.226-.556-3.156-2.041.07-1.41 1.685-2.226 3.301-2.451 3.156-.44 6.257-.13 9.353.46h-.005Z"/>
    <path fill="#AE8150" d="M273.063 229.592c-1.035-1.325-1.471-2.62-.36-4.221.525-.755.8-1.85.78-2.786-.045-2.185 1.08-1.955 2.481-1.43 1.66 1.735 3.346 3.406 3.861 5.942.34 1.665-.22 2.41-1.781 2.48-1.655.075-3.321.015-4.981.01v.005Z"/>
    <path fill="#261620" d="M263.2 73.656c0 4.246-.065 8.498.03 12.744.04 1.78-.511 2.216-2.176 1.665-13.254-4.376-22.887-12.663-27.083-26.192-2.436-7.848-1.315-15.815 1.425-23.512 5.547-15.57 16.06-27.358 28.599-37.626 1.235-1.01 1.89-.96 3.121-.005 12.073 9.322 22.211 20.311 28.488 34.335 8.323 18.595 3.251 38.216-14.929 48.784-2.936 1.706-5.957 3.111-9.268 3.996-2.351.631-2.616-.21-2.601-2.24.055-8.163 0-16.33-.09-24.493-.03-2.405-.515-4.766-1.64-6.937-.22-.425-.36-1.01-.941-1.065-.8-.075-.875.695-1.065 1.175-1.07 2.686-2.091 5.352-1.955 8.368.16 3.656.04 7.327.04 10.993h.04l.005.01Z"/>
    <path fill="#5C5B01" d="m358.581 178.753-15.654-2.831 41.722-31.734-1.275 23.957-24.793 10.608Z"/>
    <path fill="#B8B240" d="m383.223 145.268-2.01 6.347s-20.981 5.121-32.325 25.427l-20.856-1.515s24.397-44.193 55.191-30.259Z"/>
    <path fill="#251820" d="M375.187 162.908c3.516-4.511 5.907-9.768 7.187-15.429.2-.941.2-2.001.85-2.211-7.142.73-14.694 2.306-22.036 4.716-10.163 3.336-19.011 8.748-25.763 17.231-1.3 1.63-2.26 3.486-3.116 5.391-.475 1.055-.84 2.186-1.77 2.976-3.996.03-7.973-.61-11.979-.32-1.54.115-1.52-.545-1.035-1.816 5.096-13.274 13.419-23.767 26.018-30.694 8.937-4.911 18.5-7.917 28.493-9.688 1.636-.61 3.391-.54 5.077-.885 5.786-.5 11.573-.965 17.355-1.52 1.645-.16 2.21.405 2.22 2.045.05 8.243-.235 16.445-3.126 24.282-3.486 9.463-8.647 17.681-17.39 23.292-1.605 1.031-3.116 1.211-4.701.761-4.566-1.296-9.323-1.446-13.919-2.511"/>
    <path fill="#27181F" d="M263.147 181.278c-6.497-4.431-13.404-6.127-20.556-7.292-11.138-1.816-21.236-5.837-28.448-15.05-7.632-9.747-12.074-20.761-12.539-33.244-.045-1.251-.135-2.266 1.696-2.196 16.7.66 32.369 4.676 45.383 15.605 9.408 7.902 14.524 18.285 14.469 30.864-.015 3.641 0 7.282 0 11.318l-.005-.005Z"/>
    <path fill="#FCFBF4" d="M243.958 160.483c-12.049-1.171-20.161-7.608-25.148-18.286-.35-.75-1.055-1.765-.395-2.491.56-.615 1.581-.11 2.371.095 7.612 1.986 14.709 4.882 19.826 11.264 1.92 2.4 3.231 5.131 4.391 7.957.495 1.215.095 1.661-1.045 1.456v.005Z"/>
    <path fill="#24161F" d="M268.93 172.661c-.47-17.09 7.107-29.799 21.371-38.692 7.577-4.726 15.975-7.367 24.742-8.952 4.177-.755 8.368-1.291 12.579-1.756 2.791-.31 3.066-.17 2.751 2.691-1.04 9.463-3.421 18.526-8.078 26.908-5.926 10.668-14.904 17.345-26.717 20.091-5.152 1.195-10.493 1.495-15.615 2.916-3.181.885-6.247 2.095-9.103 3.751-1.645.955-2 .405-1.95-1.215.06-1.911.015-3.832.015-5.742h.005Z"/>
    <path fill="#FBF4E7" d="M288.566 160.367c-1.43.27-1.87-.3-1.235-1.916 4.566-11.568 13.724-16.98 25.407-19.03 1.016-.18 1.986-.395 1.281 1.255-4.912 11.504-12.759 18.491-25.453 19.691Z"/>
    <path fill="#24171F" d="M263.113 125.592c0 3.666-.04 7.332.02 10.998.02 1.395-.46 1.811-1.781 1.36-8.877-3.005-17.15-7.212-24.502-13.008-7.162-5.647-11.153-13.229-12.934-22.177-1.42-7.132-.985-14.244-.73-21.386.1-2.79.785-3.41 3.351-2.756 13.964 3.566 25.938 9.923 32.94 23.387 2.566 4.936 3.531 10.128 3.561 15.584.015 2.666 0 5.332 0 7.998h.075Z"/>
    <path fill="#FBFAFB" d="M249.059 114.244c.165 1.39-.435 1.675-1.59 1.1-6.937-3.471-11.619-8.702-12.844-16.59-.095-.6-.52-1.43.195-1.78.39-.19 1.135.13 1.621.4 6.126 3.406 9.988 8.677 12.348 15.154.195.535.185 1.141.27 1.716Z"/>
    <path fill="#25161F" d="M268.855 124.327c.165-3.976-.35-8.322.351-12.619 1.52-9.342 6.366-16.76 13.734-22.48 6.532-5.078 14.024-8.274 22.031-10.294 2.126-.535 2.971.39 3.001 2.38.075 5.407.25 10.82.175 16.22-.17 12.884-6.237 22.662-16.43 30.034-5.431 3.926-11.228 7.287-17.775 9.103-.24.065-.455.21-.695.275-3.866 1.03-4.397.63-4.392-3.286v-9.333Z"/>
    <path fill="#FBFAFB" d="M281.544 114.244c-.165 1.39.435 1.675 1.59 1.1 6.937-3.471 11.618-8.702 12.844-16.59.095-.6.52-1.43-.195-1.78-.39-.19-1.136.13-1.621.4-6.126 3.406-9.988 8.677-12.348 15.154-.195.535-.185 1.141-.27 1.716Z"/>
    <path fill="#251820" d="m173.701 178.308-11.683 2.46c-1.431.301-2.676.091-4.017-.685-8.572-4.946-14.014-12.408-18.085-21.256-3.901-8.467-4.146-17.34-4.101-26.343.01-1.785.875-1.97 2.345-1.93 13.089.335 26.033 1.615 38.322 6.487 7.277 2.885 14.134 6.472 20.501 11.258 8.692 6.532 13.484 15.73 18.84 24.632.696 1.156.135 1.641-1.12 1.596-1.41-.05-2.826-.025-4.241-.035-2.056.31-4.141-.025-6.202.36-1.355.255-2.136-.565-2.756-1.671-6.277-11.213-16.38-17.59-27.978-22.056-.225-.085-.49-.07-.74-.1-5.212-1.906-10.393-3.886-15.89-4.887-1.47-.265-2.946-.455-4.411-.71-1.744-.62-2.594-.238-2.551 1.145.08.225.14.451.195.681 3.516 12.838 11.143 22.341 23.017 28.413.22.115.455.205.675.32.75.4 2.206.065 2.151 1.215-.055 1.091-1.491.711-2.266 1.096l-.005.01Z"/>
    <path fill="#827B13" d="M173.701 178.562c-3.811-2.085-7.552-5.786-11.438-9.362-6.232-5.737-10.343-12.739-12.664-20.836-.11-.386-1.235-3.416-1.255-3.827 2.06-.55 5.066 2.961 6.947 3.531 1.895.576 3.556 1.816 5.606 1.936.256.035.501.105.741.19 1.23.7 2.575.83 3.956.75 1.7.275 3.426.44 5.111.786.846.175 1.621.27 2.306-.381.19-.15.395-.27.615-.365.845.195 1.356.691 1.211 1.586-.15.925-.946 1.105-1.706 1.175-2.066.195-4.131.115-6.617-.425 1.516 1.791 3.026 2.851 4.521 3.796 5.242 3.311 9.813 7.402 14.255 11.674 1.215 1.17 2.335 2.41 3.106 3.886.705 1.355 1.615 2.495 2.7 3.531"/>
    <path fill="#5B5B03" d="M191.102 176.202c-.655-.265-1.575.18-1.99-.715-3.066-6.577-8.988-10.388-14.26-14.859-2.69-2.281-5.986-3.711-8.457-6.272-.395-.41-1.155-.7-.89-1.326.325-.775 1.22-.465 1.755-.305 1.881.56 3.791.385 5.692.435.56.015 1.25.095 1.445-.65.175-.685-.26-1.08-.855-1.32-.425.075-.595-.085-.485-.515 4.156 1.5 7.342 2.435 11.873 5.271 4.792 3.001 9.218 6.457 12.884 10.763 1.701 1.996 3.171 4.242 4.416 6.552.651 1.211 1.351 1.446 2.511 1.426 1.906-.03 3.816.035 5.722.06-6.417 1.02-12.924.82-19.366 1.455h.005Z"/>
    <path fill="#FDF3E7" d="M179.173 152.895s-28.659-10.738-30.829-8.362c0 0 5.291 13.419 30.829 8.362Z"/>
    <path fill="#906A42" d="m166.696 77.533 2.171 10.218s34.095 1.275 34.86 30.008l10.088.766s-.255-39.842-47.119-40.992Zm-3.701 11.748h-8.682s-2.301 26.818 15.069 39.457c0 0 16.475.51 27.198 12.133l-5.236-10.088s-30.904-5.236-28.349-41.502Zm202.603-12.383-2.17 10.218s-34.095 1.275-34.861 30.009l-10.088.765s.256-39.842 47.119-40.992Z"/>
    <path fill="#693E63" d="M399.593 231.583s-26.903 12.084-49.884 11.919c0 0-33.915 67.995-140.837 71.061 0 0 90.077 34.15 149.524-21.512 0 0 33.2-29.623 41.202-61.463l-.005-.005Z"/>
    <path fill="#BAB24E" d="m167.755 251.324-19.626-4.611s21.581 49.544 61.548 61.168l.085-4.257-23.552-23.977s-14.204-14.444-18.46-28.318l.005-.005Z"/>
    <path fill="#906A42" d="M369.306 88.646h8.683s2.3 26.818-15.07 39.457c0 0-16.475.51-27.198 12.133l5.237-10.088s30.904-5.236 28.348-41.502Z"/>
    <path fill="#AE5B8A" d="m350.879 243.082-4.107 11.093 29.304-5.477s-15.495 45.289-77.128 69.296c0 0 65.66-5.307 91.882-82.95 0 0-11.003 3.431-39.951 8.033v.005Z"/>
    <path fill="#565700" d="M346.772 254.175s-19.886 2.421-28.058 3.056c0 0-14.975 29.123-55.837 42.402s-84.154-1.915-84.154-1.915 35.74 35.595 99.729 15.834c52.1-16.089 68.32-59.377 68.32-59.377Z"/>
    <path fill="#BA985F" d="m350.879 243.082-4.106 11.093s-21.727 2.951-28.184 3.286l5.532-10.513 26.758-3.866Z"/>
    <path fill="#D4B188" d="m324.207 246.943-5.616 10.523s-69.301 7.187-116.294-.985l-4.597-11.239s60.443 8.173 126.507 1.701Z"/>
    <path fill="#FFFDFE" d="M187.805 279.107s-5.957 1.191-4.681 6.302c0 0 10.983 13.789 30.989 17.28 0 0 4.681.936 3.236-6.557 0 0-.19-.845-3.491-1.615 0 0-15.325-3.916-26.053-15.41Zm38.989 24.047a3.82 3.82 0 1 0 0-7.641 3.82 3.82 0 0 0 0 7.641Z"/>
    <path fill="#251620" d="M28.069 409.126a6.321 6.321 0 0 1 1.25-2.016 5.741 5.741 0 0 1 1.861-1.355 5.317 5.317 0 0 1 2.225-.48h13.064c.78 0 1.521.16 2.226.48.705.32 1.325.775 1.86 1.355a6.361 6.361 0 0 1 1.251 2.016c.295.765.445 1.565.445 2.41v20.051l-.22.24c-3.151 3.411-6.727 5.822-10.728 7.227-4.187 1.406-8.378 2.106-12.564 2.106s-7.912-.765-11.508-2.286c-3.521-1.525-6.557-3.631-9.118-6.321-2.556-2.731-4.541-5.962-5.947-9.693C.721 419.129 0 415.052 0 410.636v-.18c0-4.416.741-8.427 2.226-12.044 1.481-3.771 3.521-7.002 6.117-9.692a31.945 31.945 0 0 1 4.171-3.701 26.102 26.102 0 0 1 4.892-2.861 25.999 25.999 0 0 1 5.446-1.776c1.851-.38 3.796-.57 5.837-.57 1.11 0 2.186.04 3.226.12 1.035.08 2.035.2 3.001.36 1.925.32 3.761.805 5.501 1.446.446.2.881.4 1.306.6.425.2.88.4 1.36.6.23.12.47.24.72.36s.511.26.781.42a5.95 5.95 0 0 1 2.11 2.046c.52.845.861 1.745 1.031 2.711a7.38 7.38 0 0 1-.085 2.92 7.172 7.172 0 0 1-1.281 2.741l-.055.12c-1.04 1.326-2.331 2.126-3.871 2.411-1.545.28-3.001-.04-4.381-.965-.37-.2-.736-.4-1.091-.601-.355-.2-.715-.36-1.085-.48-.52-.2-1.07-.4-1.645-.6a12.85 12.85 0 0 0-1.811-.48c-.41-.08-.82-.14-1.23-.18-.41-.04-.836-.08-1.281-.12-.26-.04-.52-.06-.78-.06h-.835c-1.926 0-3.801.46-5.617 1.385-.925.44-1.77.976-2.531 1.596a18.194 18.194 0 0 0-2.14 2.075c-1.371 1.526-2.411 3.331-3.111 5.417-.78 2.126-1.165 4.356-1.165 6.682v.12c0 2.531.39 4.876 1.165 7.047.85 2.251 1.925 4.096 3.226 5.542a14.11 14.11 0 0 0 4.836 3.671c1.891.845 3.946 1.265 6.172 1.265h.78c.891 0 1.731-.08 2.531-.24.795-.16 1.566-.34 2.306-.54.85-.28 1.665-.6 2.445-.965a12.722 12.722 0 0 0 2.226-1.326v-6.982h-6.002c-.78 0-1.52-.16-2.225-.48a5.669 5.669 0 0 1-1.861-1.355 6.332 6.332 0 0 1-1.25-2.016 6.61 6.61 0 0 1-.445-2.411v-.12c0-.845.145-1.645.445-2.41l-.01-.01Zm69.26 20.596c.74 1.165 1.12 2.39 1.14 3.671.02 1.285-.23 2.461-.75 3.521-.52 1.065-1.28 1.945-2.281 2.651-1 .705-2.13 1.055-3.391 1.055h-.165a5.97 5.97 0 0 1-3.031-.815 6.424 6.424 0 0 1-2.305-2.256l-9.728-15.655h-8.117v11.499a7.299 7.299 0 0 1-.531 2.801 7.555 7.555 0 0 1-1.445 2.285 6.907 6.907 0 0 1-2.111 1.566c-.795.38-1.66.57-2.585.57h-.11c-.926 0-1.791-.19-2.586-.57a6.919 6.919 0 0 1-2.111-1.566 7.52 7.52 0 0 1-1.445-2.285 7.298 7.298 0 0 1-.53-2.801v-45.764a7.29 7.29 0 0 1 .53-2.8 7.512 7.512 0 0 1 1.445-2.286 6.935 6.935 0 0 1 2.111-1.566c.795-.38 1.66-.57 2.586-.57h18.785c3.481 0 6.607.52 9.368 1.566 2.761 1.045 5.086 2.59 6.977 4.636 3.226 3.491 4.836 8.187 4.836 14.089 0 4.376-.915 8.188-2.75 11.439-1.836 3.251-4.587 5.721-8.253 7.407l6.447 10.178Zm-9.058-28.484c0-1.645-.295-2.961-.89-3.946-.595-.985-1.325-1.745-2.196-2.29a7.5 7.5 0 0 0-2.78-1.056c-.981-.16-1.881-.24-2.696-.24H68.701v15.115h11.228c2.666 0 4.726-.651 6.172-1.956 1.445-1.305 2.165-3.121 2.165-5.452v-.18l.005.005Zm44.133-19.265c1.48 1.045 2.576 2.47 3.281 4.276l17.62 44.798c.445 1.125.6 2.256.47 3.401s-.47 2.166-1.03 3.071a6.957 6.957 0 0 1-2.196 2.226c-.91.58-1.935.875-3.086.875h-.165c-1.295 0-2.48-.39-3.556-1.175a6.622 6.622 0 0 1-2.335-3.101l-3.281-8.793h-21.677l-3.336 8.853c-.48 1.285-1.24 2.31-2.28 3.071a5.762 5.762 0 0 1-3.501 1.145h-.11c-1.111 0-2.111-.28-3.001-.845a6.725 6.725 0 0 1-2.166-2.196c-.555-.9-.9-1.905-1.03-3.011-.13-1.105.03-2.215.47-3.341a5549.096 5549.096 0 0 0 8.002-20.321 4486.898 4486.898 0 0 1 5.502-13.999c1.705-4.256 3.111-7.807 4.226-10.658.705-1.806 1.796-3.231 3.281-4.276 1.481-1.046 3.111-1.566 4.892-1.566h.11c1.78 0 3.411.52 4.891 1.566h.005Zm.89 32.754-6.001-15.834-5.947 15.834h11.948Zm24.045-30.134a7.52 7.52 0 0 1 1.445-2.285 6.919 6.919 0 0 1 2.111-1.566c.795-.38 1.66-.57 2.586-.57h.11c.925 0 1.785.19 2.585.57.796.38 1.501.905 2.111 1.566.61.66 1.09 1.425 1.445 2.285.351.866.531 1.796.531 2.801v45.764a7.497 7.497 0 0 1-.531 2.83 7.166 7.166 0 0 1-1.445 2.291 7.185 7.185 0 0 1-2.111 1.536c-.795.38-1.66.57-2.585.57h-.11c-.926 0-1.791-.19-2.586-.57a7.198 7.198 0 0 1-2.111-1.536 7.028 7.028 0 0 1-1.445-2.291 7.497 7.497 0 0 1-.53-2.83v-45.764c0-1.005.175-1.935.53-2.801Zm52.744.12a7.375 7.375 0 0 1 1.415-2.255 6.36 6.36 0 0 1 2.086-1.506c.795-.36 1.64-.54 2.53-.54h.111c.89 0 1.73.19 2.53.57.795.38 1.491.896 2.086 1.536a7.497 7.497 0 0 1 1.415 2.255c.35.866.53 1.776.53 2.741v45.038a8.475 8.475 0 0 1-.585 3.161 8.121 8.121 0 0 1-1.585 2.561 7.471 7.471 0 0 1-2.361 1.716c-.91.42-1.88.63-2.916.63h-.11c-1.185 0-2.3-.28-3.336-.845a7.494 7.494 0 0 1-2.611-2.351l-22.791-32.395v28.479a7.298 7.298 0 0 1-.53 2.801 7.493 7.493 0 0 1-1.416 2.255 6.4 6.4 0 0 1-2.085 1.506c-.796.36-1.641.54-2.531.54h-.11c-.89 0-1.731-.19-2.531-.57a6.895 6.895 0 0 1-2.086-1.536 7.34 7.34 0 0 1-1.415-2.255 7.123 7.123 0 0 1-.53-2.741V389.07a8.85 8.85 0 0 1 .64-3.371 9.036 9.036 0 0 1 1.721-2.741 8.17 8.17 0 0 1 2.53-1.866 7.137 7.137 0 0 1 3.111-.69h.165c1.261 0 2.446.3 3.556.905 1.111.601 2.036 1.446 2.781 2.531l21.792 30.949v-27.278c0-1 .175-1.935.53-2.801v.005Zm65.979 51.541a7.471 7.471 0 0 1-1.415 2.255 6.753 6.753 0 0 1-2.086 1.536c-.8.38-1.641.57-2.531.57h-.055c-.925 0-1.79-.19-2.586-.57a7.175 7.175 0 0 1-2.11-1.536 7.036 7.036 0 0 1-1.446-2.29 7.506 7.506 0 0 1-.53-2.831v-45.764c0-1.005.175-1.935.53-2.801.35-.86.836-1.625 1.446-2.285a6.93 6.93 0 0 1 2.11-1.566 5.934 5.934 0 0 1 2.586-.57h29.794c.85 0 1.645.18 2.391.54a6.44 6.44 0 0 1 1.945 1.446 7.127 7.127 0 0 1 1.336 2.105c.335.806.5 1.666.5 2.591v.18c0 .925-.165 1.786-.5 2.591a7.063 7.063 0 0 1-1.336 2.105 6.502 6.502 0 0 1-1.945 1.446c-.741.36-1.536.54-2.391.54h-23.182v9.753h19.456c.815 0 1.595.17 2.336.51.74.34 1.38.81 1.915 1.416a7.15 7.15 0 0 1 1.28 2.075c.316.785.476 1.616.476 2.501v.18a6.79 6.79 0 0 1-.476 2.561 6.533 6.533 0 0 1-1.28 2.045 5.98 5.98 0 0 1-1.915 1.386c-.741.34-1.521.51-2.336.51h-19.456v16.62a7.14 7.14 0 0 1-.53 2.741l.005.01Zm74.237-55.847c.89 0 1.73.19 2.531.57.795.38 1.49.896 2.085 1.536a7.5 7.5 0 0 1 1.416 2.255c.35.866.53 1.776.53 2.741v26.253c0 4.256-.54 8.047-1.611 11.378-1.075 3.331-2.64 6.142-4.696 8.428-2.056 2.291-4.576 4.036-7.562 5.236-2.981 1.206-6.382 1.806-10.198 1.806-3.816 0-7.152-.59-10.118-1.776-2.966-1.185-5.467-2.9-7.502-5.146-2.041-2.246-3.586-5.007-4.642-8.278-1.055-3.27-1.585-7.017-1.585-11.228v-26.673c0-.965.175-1.875.53-2.741.35-.86.825-1.615 1.415-2.255a6.774 6.774 0 0 1 2.086-1.536 5.8 5.8 0 0 1 2.531-.57h.11c.89 0 1.73.19 2.53.57a6.87 6.87 0 0 1 2.086 1.536 7.52 7.52 0 0 1 1.416 2.255c.35.866.53 1.776.53 2.741v26.313c0 4.456.895 7.807 2.695 10.053 1.796 2.251 4.437 3.371 7.923 3.371 3.486 0 6.252-1.105 8.087-3.311 1.836-2.206 2.751-5.442 2.751-9.693v-26.733c0-.965.175-1.875.53-2.741.35-.86.825-1.615 1.416-2.255a6.758 6.758 0 0 1 2.085-1.536 5.803 5.803 0 0 1 2.531-.57h.11-.01Zm33.35 23.722c2.596.72 4.946 1.546 7.057 2.471 2.111.925 3.916 2.075 5.422 3.461 1.505 1.385 2.665 3.051 3.501 4.996.835 1.946 1.25 4.267 1.25 6.957v.12c0 2.851-.475 5.412-1.416 7.678-.945 2.27-2.29 4.206-4.031 5.811-1.74 1.606-3.856 2.841-6.337 3.701-2.48.866-5.246 1.296-8.282 1.296-2.631 0-5.187-.31-7.672-.935a34.215 34.215 0 0 1-7.172-2.681 14.12 14.12 0 0 1-1.476-.785 61.251 61.251 0 0 1-1.36-.846 5.905 5.905 0 0 1-1.946-2.015 7.55 7.55 0 0 1-.945-2.621 7.003 7.003 0 0 1 .11-2.771c.22-.92.63-1.785 1.225-2.591l.11-.06c.966-1.285 2.206-2.055 3.726-2.315 1.521-.26 2.926.03 4.227.875a24.848 24.848 0 0 0 2.781 1.745 19.426 19.426 0 0 0 4.226 1.716c1.41.38 2.871.57 4.391.57 2.151 0 3.826-.4 5.032-1.205 1.205-.8 1.805-1.906 1.805-3.311v-.18c0-.64-.12-1.236-.36-1.776s-.715-1.055-1.415-1.535c-.706-.48-1.716-.976-3.031-1.476-1.316-.5-3.051-1.055-5.197-1.655a81.978 81.978 0 0 1-7.117-2.346c-2.186-.845-4.086-1.925-5.697-3.251-1.61-1.325-2.881-2.991-3.806-4.996-.925-2.006-1.39-4.557-1.39-7.648v-.12c0-2.65.47-5.076 1.415-7.287.946-2.205 2.261-4.106 3.946-5.691 1.686-1.586 3.706-2.821 6.057-3.702 2.351-.88 4.937-1.325 7.752-1.325 4.042 0 7.783.625 11.229 1.866.705.24 1.36.5 1.975.785.611.28 1.196.58 1.751.905a6.522 6.522 0 0 1 2.03 1.866 6.707 6.707 0 0 1 1.086 2.5 7.69 7.69 0 0 1 .055 2.771 7.216 7.216 0 0 1-1 2.681l-.111.12c-.89 1.405-2.085 2.311-3.586 2.711-1.5.4-2.955.22-4.361-.54a32.631 32.631 0 0 0-3.501-1.746c-1-.4-1.965-.7-2.891-.905-.925-.2-1.87-.3-2.836-.3-1.815 0-3.271.37-4.361 1.115-1.095.745-1.64 1.756-1.64 3.041v.12c0 .72.12 1.356.36 1.896.24.54.74 1.065 1.5 1.565s1.841 1.015 3.251 1.536c1.406.52 3.296 1.105 5.672 1.745l-.005-.005Zm20.761-19.535a7.512 7.512 0 0 1 1.445-2.286 6.94 6.94 0 0 1 2.111-1.566 5.91 5.91 0 0 1 2.585-.57h.11c.926 0 1.786.19 2.586.57a6.951 6.951 0 0 1 2.111 1.566c.61.66 1.09 1.425 1.445 2.286.35.865.53 1.795.53 2.8v45.764a7.525 7.525 0 0 1-.53 2.831 7.172 7.172 0 0 1-1.445 2.29 7.162 7.162 0 0 1-2.111 1.536c-.795.38-1.66.57-2.586.57h-.11c-.925 0-1.79-.19-2.585-.57a7.15 7.15 0 0 1-2.111-1.536 7.034 7.034 0 0 1-1.445-2.29 7.487 7.487 0 0 1-.531-2.831v-45.764c0-1.005.175-1.935.531-2.8Zm18.09 13.818c1.446-3.651 3.481-6.902 6.117-9.752a26.514 26.514 0 0 1 4.251-3.731 29.975 29.975 0 0 1 4.977-2.831c3.666-1.646 7.597-2.471 11.783-2.471 2.111-.04 4.141.16 6.087.6a30.787 30.787 0 0 1 5.642 1.866c3.596 1.645 6.707 3.876 9.337 6.682 2.556 2.73 4.597 6.001 6.117 9.813a29.865 29.865 0 0 1 2.111 9.812l.055.781c.035.44.055.865.055 1.265v1.265l-.055 1.086a25.823 25.823 0 0 1-.61 5.176 31.354 31.354 0 0 1-1.501 4.817c-1.445 3.651-3.481 6.907-6.112 9.753-2.595 2.73-5.671 4.916-9.227 6.561-3.521 1.606-7.448 2.411-11.784 2.411s-8.262-.805-11.783-2.411a28.407 28.407 0 0 1-9.283-6.681c-2.556-2.731-4.596-6.002-6.117-9.813-1.48-3.772-2.226-7.788-2.226-12.044v-.12c0-4.296.721-8.307 2.166-12.044v.01Zm11.063 14.39c.11 1.445.481 2.911 1.111 4.396a16.96 16.96 0 0 0 1.445 2.891 19.807 19.807 0 0 0 1.891 2.531c1.335 1.525 3.036 2.75 5.111 3.671 1.891.885 4.076 1.325 6.557 1.325 2.481 0 4.596-.44 6.447-1.325 2.001-.881 3.706-2.086 5.112-3.611 1.445-1.486 2.575-3.271 3.391-5.357.78-2.046 1.165-4.256 1.165-6.622v-.12c0-2.291-.41-4.476-1.226-6.562a18.983 18.983 0 0 0-1.415-2.891 16.115 16.115 0 0 0-1.915-2.53 15.357 15.357 0 0 0-5.172-3.672 15.637 15.637 0 0 0-6.502-1.385c-2.296 0-4.391.46-6.502 1.385-1.965.926-3.671 2.131-5.116 3.612-1.336 1.445-2.446 3.23-3.336 5.356-.52 1.325-.871 2.831-1.056 4.516l-.055.661c-.11.925-.11 1.845 0 2.77l.055.966.01-.005Zm85.296-28.089a7.375 7.375 0 0 1 1.415-2.255 6.381 6.381 0 0 1 2.086-1.506 6.073 6.073 0 0 1 2.531-.54h.11c.89 0 1.73.19 2.531.57.795.38 1.49.896 2.085 1.536a7.5 7.5 0 0 1 1.416 2.255c.35.866.53 1.776.53 2.741v45.038a8.475 8.475 0 0 1-.585 3.161 8.124 8.124 0 0 1-1.586 2.561 7.46 7.46 0 0 1-2.361 1.716c-.91.42-1.88.63-2.915.63h-.11a6.874 6.874 0 0 1-3.336-.845 7.477 7.477 0 0 1-2.611-2.351l-22.792-32.395v28.479a7.298 7.298 0 0 1-.53 2.801 7.471 7.471 0 0 1-1.415 2.255 6.414 6.414 0 0 1-2.086 1.506c-.795.36-1.641.54-2.531.54h-.11c-.89 0-1.73-.19-2.531-.57a6.878 6.878 0 0 1-2.085-1.536 7.343 7.343 0 0 1-1.416-2.255 7.123 7.123 0 0 1-.53-2.741V389.07a8.85 8.85 0 0 1 .64-3.371 8.992 8.992 0 0 1 1.726-2.741 8.163 8.163 0 0 1 2.531-1.866c.965-.46 2-.69 3.111-.69h.165c1.26 0 2.445.3 3.556.905 1.11.601 2.035 1.446 2.78 2.531l21.792 30.949v-27.278c0-1 .175-1.935.53-2.801l-.005.005Zm-341.466 97.119c.44.45.755.95.95 1.5.196.551.276 1.116.236 1.691a4.184 4.184 0 0 1-.456 1.65c-.27.526-.63.991-1.095 1.391l-1.205.9c-.315.2-.63.39-.951.56-.315.175-.645.35-.985.525-1.145.576-2.441 1.016-3.901 1.316-1.385.3-2.956.45-4.706.45-2.676 0-5.117-.485-7.333-1.465-2.26-1.001-4.216-2.351-5.871-4.052-1.656-1.75-2.941-3.776-3.866-6.081-.926-2.351-1.386-4.827-1.386-7.433v-.11c0-2.65.46-5.126 1.386-7.432.44-1.125.98-2.196 1.62-3.211a19.122 19.122 0 0 1 2.241-2.871c1.605-1.725 3.576-3.101 5.906-4.126 2.336-1 4.862-1.5 7.588-1.5.85 0 1.65.03 2.405.095.756.06 1.481.17 2.186.32a16.5 16.5 0 0 1 1.971.49c.63.2 1.225.425 1.785.675.265.125.52.245.765.355.245.11.486.23.731.355.17.1.335.2.49.3.16.1.32.216.49.341.535.35.96.795 1.275 1.33.315.54.51 1.105.585 1.705a4.482 4.482 0 0 1-.145 1.801c-.17.6-.46 1.15-.875 1.65l-.035.076c-.34.425-.74.755-1.205.995a4.56 4.56 0 0 1-1.421.47c-.485.075-.98.06-1.475-.04-.5-.1-.965-.3-1.405-.6a21.098 21.098 0 0 0-.801-.49c-.27-.15-.535-.301-.8-.451-.68-.35-1.4-.61-2.151-.79a10.614 10.614 0 0 0-2.405-.265c-1.411 0-2.701.275-3.866.825a9.767 9.767 0 0 0-3.061 2.291 11.156 11.156 0 0 0-2.006 3.416 12.46 12.46 0 0 0-.73 4.166v.115c0 1.426.245 2.826.73 4.202.245.65.52 1.265.84 1.84a9.24 9.24 0 0 0 1.131 1.616c.85.95 1.87 1.715 3.061 2.29 1.24.575 2.54.866 3.901.866 1.92 0 3.536-.361 4.851-1.091.585-.325 1.141-.69 1.676-1.09.415-.3.85-.515 1.31-.64.46-.125.93-.17 1.405-.13.476.04.931.155 1.366.355.44.2.84.49 1.205.865l.035.075.015.005Z"/>
    <path fill="#251620" d="M179.033 465.132a19.429 19.429 0 0 1 4.012-6.082c.85-.875 1.78-1.65 2.79-2.325a20.057 20.057 0 0 1 3.266-1.766c2.406-1.025 4.982-1.54 7.733-1.54 1.385-.025 2.715.1 3.991.375 1.275.275 2.51.665 3.701 1.165 2.356 1.026 4.401 2.416 6.127 4.166 1.675 1.701 3.016 3.742 4.011 6.117a17.867 17.867 0 0 1 1.385 6.117l.035.49c.025.275.035.54.035.79v.791l-.035.675a15.646 15.646 0 0 1-.4 3.226 18.842 18.842 0 0 1-.985 3.001 19.41 19.41 0 0 1-4.011 6.081c-1.701 1.701-3.721 3.066-6.052 4.092-2.311 1-4.887 1.5-7.732 1.5-2.846 0-5.422-.5-7.733-1.5a18.632 18.632 0 0 1-6.091-4.167c-1.676-1.7-3.016-3.741-4.012-6.116-.97-2.351-1.46-4.852-1.46-7.508v-.075c0-2.675.475-5.181 1.42-7.507h.005Zm7.257 8.968c.075.9.316 1.815.731 2.741.265.65.585 1.25.95 1.8s.775 1.076 1.24 1.576c.876.95 1.996 1.715 3.356 2.29 1.241.55 2.676.826 4.302.826 1.625 0 3.015-.276 4.231-.826 1.31-.55 2.431-1.3 3.356-2.25.95-.926 1.69-2.041 2.225-3.341.511-1.276.766-2.651.766-4.127v-.075c0-1.425-.27-2.79-.801-4.091-.27-.65-.575-1.25-.93-1.8a10.182 10.182 0 0 0-4.651-3.866 10.672 10.672 0 0 0-4.266-.866c-1.506 0-2.881.29-4.267.866a11.436 11.436 0 0 0-3.356 2.25c-.875.901-1.605 2.016-2.185 3.341-.34.825-.57 1.766-.696 2.816l-.035.415a6.648 6.648 0 0 0 0 1.726l.035.6-.005-.005Zm59.478-19.421a5.562 5.562 0 0 1 2.846-.77h.11c.8 0 1.555.155 2.26.47a5.951 5.951 0 0 1 1.861 1.295 6.145 6.145 0 0 1 1.26 1.916c.305.725.455 1.5.455 2.326v27.058a4.4 4.4 0 0 1-.345 1.745 4.53 4.53 0 0 1-.93 1.405c-.39.401-.845.721-1.365.956a4.11 4.11 0 0 1-1.696.355h-.145c-.585 0-1.135-.11-1.66-.34a4.059 4.059 0 0 1-1.366-.94 4.337 4.337 0 0 1-.91-1.391 4.334 4.334 0 0 1-.33-1.69v-18.241l-9.008 14.074c-.145.2-.34.3-.585.3a.592.592 0 0 1-.545-.3l-8.898-13.924v18.016a4.4 4.4 0 0 1-.345 1.745c-.23.54-.54 1.005-.93 1.406-.39.4-.845.71-1.366.94a4.16 4.16 0 0 1-1.66.34h-.075c-.585 0-1.135-.12-1.661-.355a4.32 4.32 0 0 1-1.365-.956c-.39-.4-.7-.87-.93-1.405a4.277 4.277 0 0 1-.345-1.705v-27.093c0-.826.15-1.601.455-2.326a6.145 6.145 0 0 1 1.26-1.916 5.951 5.951 0 0 1 1.861-1.295c.705-.31 1.46-.47 2.26-.47h.11c1.021 0 1.971.255 2.846.77a5.987 5.987 0 0 1 2.116 2.086l7.332 12.123 7.332-12.123a6.029 6.029 0 0 1 2.116-2.086h-.02Zm38.836 7.037c.655 1.626.985 3.401.985 5.327v.115c0 2.225-.39 4.151-1.165 5.776a13.885 13.885 0 0 1-1.386 2.291 12.17 12.17 0 0 1-1.825 1.916c-1.336 1.1-2.906 1.94-4.707 2.515-1.7.551-3.621.826-5.761.826h-5.397v6.457a4.4 4.4 0 0 1-.345 1.745 4.531 4.531 0 0 1-.95 1.425c-.4.416-.866.741-1.386.976a4.103 4.103 0 0 1-1.695.355h-.075c-.61 0-1.176-.12-1.696-.355a4.392 4.392 0 0 1-1.385-.976 4.77 4.77 0 0 1-.95-1.425 4.4 4.4 0 0 1-.345-1.745v-28.524a4.4 4.4 0 0 1 .345-1.745c.23-.536.545-1.016.95-1.426.4-.415.86-.74 1.385-.975a4.074 4.074 0 0 1 1.696-.355h10.613c2.261 0 4.231.315 5.907.94 1.715.625 3.181 1.526 4.391 2.701 1.23 1.125 2.166 2.516 2.796 4.166v-.005Zm-8.168 5.477c0-1.626-.485-2.866-1.46-3.716-.975-.851-2.386-1.276-4.231-1.276h-5.617v10.093h5.762c1.75 0 3.126-.475 4.121-1.425.945-.925 1.42-2.116 1.42-3.566v-.11h.005Zm25.343-12.309c.971.65 1.691 1.541 2.151 2.666l11.558 27.923c.291.7.396 1.406.311 2.121a4.436 4.436 0 0 1-.676 1.915 4.447 4.447 0 0 1-1.44 1.391c-.595.36-1.27.545-2.026.545h-.11c-.85 0-1.63-.245-2.335-.73a4.15 4.15 0 0 1-1.531-1.931l-2.15-5.481h-14.225l-2.19 5.516a4.13 4.13 0 0 1-1.496 1.916 3.915 3.915 0 0 1-2.295.715h-.075a3.76 3.76 0 0 1-1.971-.525 4.271 4.271 0 0 1-1.42-1.371 4.398 4.398 0 0 1-.676-1.875c-.085-.69.02-1.381.31-2.081 2.041-4.901 3.792-9.127 5.252-12.663 1.46-3.541 2.661-6.447 3.611-8.728a928.14 928.14 0 0 0 2.771-6.642c.46-1.125 1.18-2.016 2.151-2.666.97-.65 2.04-.975 3.21-.975h.075c1.166 0 2.236.325 3.211.975l.005-.015Zm.586 20.416-3.937-9.868-3.901 9.868h7.843-.005Zm39.581-18.705c.23-.541.541-1.006.931-1.406.39-.4.845-.71 1.365-.94a4.144 4.144 0 0 1 1.661-.34h.075c.585 0 1.135.12 1.66.355a4.476 4.476 0 0 1 2.296 2.361c.23.54.345 1.105.345 1.705v28.068c0 .701-.125 1.356-.385 1.971a4.962 4.962 0 0 1-1.041 1.595c-.44.451-.955.806-1.55 1.071a4.658 4.658 0 0 1-1.916.395h-.075c-.78 0-1.505-.175-2.19-.525a4.882 4.882 0 0 1-1.716-1.466l-14.949-20.191v17.751a4.4 4.4 0 0 1-.345 1.745c-.23.54-.54 1.005-.931 1.406-.39.4-.845.71-1.365.94a4.16 4.16 0 0 1-1.66.34h-.075a4.01 4.01 0 0 1-1.661-.355 4.32 4.32 0 0 1-1.365-.956c-.39-.4-.701-.87-.931-1.405a4.277 4.277 0 0 1-.345-1.705V459.31c0-.75.14-1.45.42-2.1a5.57 5.57 0 0 1 1.131-1.706 5.41 5.41 0 0 1 1.66-1.165 4.82 4.82 0 0 1 2.041-.43h.11a5.117 5.117 0 0 1 4.161 2.14l14.294 19.291v-17a4.4 4.4 0 0 1 .345-1.745h.005Zm34.04-2.141c.63-.36 1.31-.545 2.041-.545h.11c.825 0 1.555.215 2.19.64a4.41 4.41 0 0 1 1.461 1.595c.34.641.51 1.351.51 2.141s-.22 1.536-.655 2.231l-9.918 16.024v10.394a4.4 4.4 0 0 1-.345 1.745 4.551 4.551 0 0 1-.951 1.425c-.4.416-.865.741-1.385.976s-1.09.355-1.696.355h-.11a4.162 4.162 0 0 1-3.061-1.331c-.39-.415-.7-.885-.93-1.425a4.4 4.4 0 0 1-.345-1.745v-10.243l-9.993-16.175c-.44-.725-.655-1.476-.655-2.251a4.4 4.4 0 0 1 .53-2.141c.35-.65.845-1.18 1.476-1.595.63-.415 1.36-.62 2.19-.62h.365c.755 0 1.446.19 2.081.565.63.375 1.14.89 1.53 1.54l6.967 12.049 7.077-12.084a4.255 4.255 0 0 1 1.531-1.52l-.015-.005ZM126.458 341.631h-22.967a5.844 5.844 0 1 0 0 11.688h22.967a5.845 5.845 0 0 0 5.847-5.844 5.845 5.845 0 0 0-5.847-5.844Zm202.972-.001H153.983a5.846 5.846 0 0 0-5.847 5.845 5.846 5.846 0 0 0 5.847 5.844H329.43a5.845 5.845 0 1 0 0-11.689Zm42.537.005h-18.295a5.846 5.846 0 0 0-5.847 5.844 5.846 5.846 0 0 0 5.847 5.845h18.295a5.846 5.846 0 0 0 5.847-5.845 5.846 5.846 0 0 0-5.847-5.844Zm56.774.001h-28.263a5.845 5.845 0 0 0-5.847 5.844 5.845 5.845 0 0 0 5.847 5.844h28.263a5.845 5.845 0 0 0 5.847-5.844 5.845 5.845 0 0 0-5.847-5.844Z"/>
    <path fill="#B89A69" d="M87.392 266.284s-.736 13.779 18.095 15.944c0 0-3.516-13.534-18.095-15.944Z"/>
    <path fill="#E9CD8B" d="M93.603 268.209s-1.691 11.864 11.883 14.014c0 0-2.45-9.583-11.883-14.014Z"/>
    <path fill="#5D5703" d="M368.429 342.146c-.53-.005-2.435 1.065-2.725.385-.281-.675 1.575-2.911 1.965-3.301 4.797-4.811 10.098-9.028 15.57-13.019 7.367-5.381 15.244-9.898 23.777-13.174 7.827-3.005 15.914-5.131 24.152-6.682 1.54-.29 1.555.446 1.045 1.466-1.15 2.296-2.271 4.571-2.701 7.157-.215 1.29-1.49 1.36-2.59 1.485-9.858 1.156-18.931 4.577-27.393 9.673-1.051.635-2.026 1.461-2.871 2.356-1.181 1.245-1.926 2.746-1.161 4.501.746 1.706 2.256 2.356 3.996 2.586 2.231.295 4.042-.765 5.802-1.88 7.042-4.457 14.715-7.128 22.962-8.143 2.396-.295 4.711-1.06 7.162-1.015 1.305.025 1.556-.966 1.636-2.051.89-12.168 7.497-20.416 18.165-25.477 5.632-2.671 11.863-3.631 18.055-4.362 1.326-.155 2.581-.225 3.711-1.135 1.631-1.315 2.186-3.001 1.626-4.881-.57-1.926-2.166-2.991-4.141-2.856-4.387.3-8.738.895-13.039 1.9-8.118 1.891-15.39 5.377-21.602 10.969-.885.795-1.845.94-2.956.94-10.953.035-21.296 3.011-31.499 6.632-16.245 5.772-29.954 15.549-42.397 27.203-2.981 2.791-7.147 6.417-9.228 10.078"/>
    <path fill="#51301A" d="M430.023 290.511c13.364.13 21.611-6.827 27.328-17.696 2.86-5.436 4.606-11.318 5.891-17.325.32-1.495.516-3.04-1.85-2.63-5.642.98-11.379 1.41-16.94 2.805-9.133 2.286-16.57 6.898-20.751 15.71-2.626 5.542-2.591 11.413-1.881 17.35.155 1.316.905 1.616 1.866 1.616 2.16 0 4.181.17 6.342.17h-.005Z"/>
    <path fill="#51321B" d="M489.489 300.729s-21.621 41.502-48.164 26.052l48.164-26.052Z"/>
    <path fill="#51321B" d="M489.469 300.759s-46.573-4.551-48.124 26.123l48.124-26.123Z"/>
    <path fill="#4F4E02" d="M451.433 227.717c5.112-.06 9.073-3.481 8.938-7.627-.055-1.706-.85-2.956-2.351-3.396-1.555-.46-3.251-.675-4.586.87-.84.975-1.385 2.601-3.286 1.886-2.066-.775-2.386-2.576-2.661-4.382-.195-1.28.21-2.69-.93-3.736-2.121-1.94-5.612-1.04-6.412 1.746-1.945 6.762 1.786 14.769 11.293 14.639h-.005Z"/>
    <path fill="#D6B483" d="M472.691 309.976c-9.963-.525-17.855 2.451-22.536 11.644 6.852 3.301 17.01-1.891 22.536-11.644Z"/>
    <path fill="#B89A69" d="M448.859 265.723s.735 13.779-18.096 15.945c0 0 3.516-13.534 18.096-15.945Z"/>
    <path fill="#E9CD8B" d="M442.647 267.649s1.69 11.863-11.884 14.014c0 0 2.451-9.583 11.884-14.014Z"/>
    <path fill="#794A6C" d="m196.209 195.463-.766 2.555s-45.968 8.048-53.25 17.11c0 0-10.983-2.81-1.531-9.832 0 0 8.428-6.002 55.547-9.833Zm138.555 0 .765 2.555s45.969 8.048 53.251 17.11c0 0 10.983-2.81 1.531-9.832 0 0-8.428-6.002-55.547-9.833Z"/>
    <path fill="#766B0F" d="M119.831 468.168h-14.859a6.107 6.107 0 1 0 0 12.214h14.859a6.107 6.107 0 0 0 0-12.214Zm306.295 0h-14.859a6.107 6.107 0 1 0 0 12.214h14.859a6.107 6.107 0 0 0 0-12.214Z"/>
  </g>
</svg>
